<?xml version="1.0" encoding="utf-8"?>
<!-- Generator: Adobe Illustrator 18.0.0, SVG Export Plug-In . SVG Version: 6.00 Build 0)  -->
<!DOCTYPE svg PUBLIC "-//W3C//DTD SVG 1.1//EN" "http://www.w3.org/Graphics/SVG/1.1/DTD/svg11.dtd">
<svg version="1.1" xmlns="http://www.w3.org/2000/svg" xmlns:xlink="http://www.w3.org/1999/xlink" x="0px" y="0px"
	 viewBox="0 0 1600 900" enable-background="new 0 0 1600 900" xml:space="preserve">
<g id="Background">
	<rect x="0" y="0" fill="#EEEEEE" width="1600" height="900"/>
</g>
<g id="Artwork">
	<g>
		<g>
			<g>
				<defs>
					<rect id="SVGID_9_" x="-990.8" y="34" width="848.9" height="866"/>
				</defs>
				<clipPath id="SVGID_2_">
					<use xlink:href="#SVGID_9_"  overflow="visible"/>
				</clipPath>
				<g clip-path="url(#SVGID_2_)">
					<rect x="-932.1" y="171.8" fill="#FFFFFF" width="1079.9" height="618.2"/>
				</g>
				<path clip-path="url(#SVGID_2_)" fill="#BDBDBD" d="M134.8,89.5H-918.1c-7.5,0-13.5,6-13.5,13.5v78.3H148.3V103
					C148.3,95.6,142.3,89.5,134.8,89.5z"/>
			</g>
		</g>
	</g>
	<g>
		<path fill="none" stroke="#FAA629" stroke-width="15" stroke-linecap="round" stroke-miterlimit="20" d="M313.6,713V522
			c0,0-0.9-35.1,25.1-35.1s232.1,0,232.1,0"/>
		<circle fill="#FFFFFF" cx="313.5" cy="487" r="91"/>
		<g>
			<rect x="260.6" y="501.1" fill="#E0E0E0" width="27" height="32"/>
			<rect x="296.5" y="470.2" fill="#BDBDBD" width="27" height="63"/>
			<rect x="332.5" y="439.3" fill="#FF9800" width="27" height="93.9"/>
		</g>
		<path fill="none" stroke="#F1592B" stroke-width="15" stroke-linecap="round" stroke-linejoin="round" stroke-miterlimit="10" d="
			M868.9,347.7V447c0,0-1.8,42.1,51.1,42.1h58.9"/>
		<path fill="none" stroke="#FAA629" stroke-width="15" stroke-linecap="round" stroke-miterlimit="20" d="M728.1,335v112
			c0,0,1.8,42.1-51.1,42.1h-58.9"/>
		<path fill="none" stroke="#F1592B" stroke-width="15" stroke-linecap="round" stroke-linejoin="round" stroke-miterlimit="10" d="
			M1286.4,713V522c0,0,0.9-35.1-25.1-35.1s-234.2,0-234.2,0"/>
		<circle fill="#FFFFFF" cx="1286.5" cy="487" r="91"/>
		<g>
			<g>
				<path fill="#E0E0E0" d="M1313.7,488.3c-0.1,15-12.4,27.2-27.4,27.1c-15-0.1-27.2-12.4-27.1-27.4c0-7.4,3.1-14.1,7.9-19
					l-27.6-27.4c-11.8,11.9-19.1,28.1-19.2,46.2c-0.2,36.5,29.2,66.4,65.8,66.6c36.5,0.2,66.4-29.2,66.6-65.8L1313.7,488.3z"/>
				<path fill="#BDBDBD" d="M1313.7,488.3l38.9,0.2c0.1-13.3-3.8-25.8-10.5-36.2l-32.7,21C1312.1,477.7,1313.7,482.8,1313.7,488.3z"
					/>
				<path fill="#F1592B" d="M1286.6,460.9c3.7,0,7.1,0.8,10.3,2.1l15-35.9c-7.7-3.2-16.2-5-25.1-5.1c-18.5-0.1-35.3,7.4-47.4,19.6
					l27.6,27.4C1272.1,463.9,1279,460.8,1286.6,460.9z"/>
				<path fill="#F1592B" d="M1309.4,473.4l32.7-21c-7.2-11.2-17.7-20.1-30.2-25.3l-15,35.9C1302.1,465.1,1306.4,468.8,1309.4,473.4z
					"/>
			</g>
			<circle fill="#FFFFFF" cx="1286.6" cy="488.1" r="39.8"/>
		</g>
		<g>
			<g>
				<path fill="#FF9800" d="M628.5,522.4h-67.4c-2.8,0-5.1-2.3-5.1-5.1v-48.6c0-2.8,2.3-5.1,5.1-5.1h67.4c2.8,0,5.1,2.3,5.1,5.1
					v48.6C633.6,520.1,631.3,522.4,628.5,522.4z"/>
			</g>
			<g>
				<path fill="#FF9800" d="M621.2,470.8c-3,0-5.4-2.4-5.4-5.4v-19.6c0-17.5,14.3-31.8,31.8-31.8c17.5,0,31.8,14.3,31.8,31.8v5.2
					c0,3-2.4,5.4-5.4,5.4s-5.4-2.4-5.4-5.4v-5.2c0-11.6-9.4-21-21-21c-11.6,0-21,9.4-21,21v19.6
					C626.6,468.3,624.2,470.8,621.2,470.8z"/>
			</g>
			<g>
				<path fill="#F47C20" d="M603.6,503H586v-14.8c0-4.9,3.9-8.8,8.8-8.8l0,0c4.9,0,8.8,3.9,8.8,8.8V503z"/>
			</g>
			<g>
				<rect x="615.8" y="454.5" fill="#F47C20" width="10.7" height="9"/>
			</g>
		</g>
		<g>
			<g>
				<path fill="#F1592B" d="M1042.5,522.4h-67.4c-2.8,0-5.1-2.3-5.1-5.1v-48.6c0-2.8,2.3-5.1,5.1-5.1h67.4c2.8,0,5.1,2.3,5.1,5.1
					v48.6C1047.7,520.1,1045.4,522.4,1042.5,522.4z"/>
			</g>
			<g>
				<path fill="#F1592B" d="M982.5,470.8c-3,0-5.4-2.4-5.4-5.4v-19.6c0-17.5,14.3-31.8,31.8-31.8c17.5,0,31.8,14.3,31.8,31.8v20.7
					c0,3-2.4,5.4-5.4,5.4s-5.4-2.4-5.4-5.4v-20.7c0-11.6-9.4-21-21-21c-11.6,0-21,9.4-21,21v19.6
					C987.9,468.3,985.5,470.8,982.5,470.8z"/>
			</g>
			<g>
				<path fill="#BF360C" d="M1017.7,503h-17.6v-14.8c0-4.9,3.9-8.8,8.8-8.8l0,0c4.9,0,8.8,3.9,8.8,8.8V503z"/>
			</g>
			<g>
				<rect x="977.1" y="454.5" fill="#BF360C" width="10.7" height="9"/>
			</g>
			<g>
				<rect x="1030" y="454.5" fill="#BF360C" width="10.7" height="9"/>
			</g>
		</g>
		<g>
			<circle fill="#FFFFFF" cx="800" cy="211" r="155.1"/>
		</g>
		<g>
			<g>
				<path fill="#FF9700" d="M800,58.1c85,0,153.8,68.9,153.8,153.8c0,85-68.9,153.8-153.8,153.8c-85,0-153.8-68.9-153.8-153.8
					C646.2,127,715,58.1,800,58.1 M800,38.1c-23.5,0-46.2,4.6-67.7,13.7C711.6,60.5,693,73.1,677.1,89c-16,16-28.5,34.5-37.2,55.2
					c-9.1,21.4-13.7,44.2-13.7,67.7s4.6,46.2,13.7,67.7c8.8,20.7,21.3,39.3,37.2,55.2c16,16,34.5,28.5,55.2,37.2
					c21.4,9.1,44.2,13.7,67.7,13.7s46.2-4.6,67.7-13.7c20.7-8.8,39.3-21.3,55.2-37.2c16-16,28.5-34.5,37.2-55.2
					c9.1-21.4,13.7-44.2,13.7-67.7s-4.6-46.2-13.7-67.7c-8.8-20.7-21.3-39.3-37.2-55.2c-16-16-34.5-28.5-55.2-37.2
					C846.2,42.7,823.4,38.1,800,38.1L800,38.1z"/>
			</g>
		</g>
		<g>
			<defs>
				<circle id="SVGID_22_" cx="800" cy="211.9" r="155.1"/>
			</defs>
			<clipPath id="SVGID_4_">
				<use xlink:href="#SVGID_22_"  overflow="visible"/>
			</clipPath>
			<path clip-path="url(#SVGID_4_)" fill="#FF9800" d="M800,238.5c36.2,0,65.6-29.4,65.6-65.6c0-36.2-29.3-65.6-65.6-65.6
				c-36.2,0-65.6,29.3-65.6,65.6C734.4,209.1,763.8,238.5,800,238.5z M800,271.3c-43.7,0-131.1,21.9-131.1,65.6v32.8h262.3v-32.8
				C931.1,293.2,843.7,271.3,800,271.3z"/>
		</g>
		<g>
			<defs>
				<rect id="SVGID_24_" x="85.9" y="645.8" width="1428.1" height="254.2"/>
			</defs>
			<clipPath id="SVGID_6_">
				<use xlink:href="#SVGID_24_"  overflow="visible"/>
			</clipPath>
			<g clip-path="url(#SVGID_6_)">
				<defs>
					<rect id="SVGID_26_" x="0" y="0" width="1600" height="900"/>
				</defs>
				<clipPath id="SVGID_8_">
					<use xlink:href="#SVGID_26_"  overflow="visible"/>
				</clipPath>
			</g>
			<path clip-path="url(#SVGID_6_)" fill="#BDBDBD" d="M313.5,806.2c34.4,0,62.3-27.9,62.3-62.3c0-34.4-27.9-62.3-62.3-62.3
				s-62.3,27.9-62.3,62.3C251.3,778.3,279.1,806.2,313.5,806.2z M313.5,837.3c-41.5,0-124.6,20.8-124.6,62.3v31.1h249.1v-31.1
				C438.1,858.1,355,837.3,313.5,837.3z"/>
			<path clip-path="url(#SVGID_6_)" fill="#BDBDBD" d="M1286.4,806.2c34.4,0,62.3-27.9,62.3-62.3c0-34.4-27.9-62.3-62.3-62.3
				s-62.3,27.9-62.3,62.3C1224.1,778.3,1252,806.2,1286.4,806.2z M1286.4,837.3c-41.5,0-124.6,20.8-124.6,62.3v31.1h249.1v-31.1
				C1410.9,858.1,1327.9,837.3,1286.4,837.3z"/>
		</g>
	</g>
</g>
</svg>
