<?xml version="1.0" encoding="utf-8"?>
<!-- Generator: Adobe Illustrator 18.0.0, SVG Export Plug-In . SVG Version: 6.00 Build 0)  -->
<!DOCTYPE svg PUBLIC "-//W3C//DTD SVG 1.1//EN" "http://www.w3.org/Graphics/SVG/1.1/DTD/svg11.dtd">
<svg version="1.1" xmlns="http://www.w3.org/2000/svg" xmlns:xlink="http://www.w3.org/1999/xlink" x="0px" y="0px"
	 viewBox="0 0 1600 900" enable-background="new 0 0 1600 900" xml:space="preserve">
<g id="Background">
	<rect x="0" y="0" fill="#EEEEEE" width="1600" height="900"/>
</g>
<g id="Artwork">
	<g>
		<line fill="none" stroke="#BDBDBD" stroke-width="15" stroke-miterlimit="20" x1="296" y1="450.2" x2="1308.9" y2="450.2"/>
		<g>
			<circle fill="#FFFFFF" cx="1297.8" cy="440.7" r="157.9"/>
			<g>
				<path fill="#BDBDBD" d="M1297.8,286.7c85,0,154,68.9,154,154s-68.9,154-154,154c-85,0-154-68.9-154-154
					S1212.8,286.7,1297.8,286.7 M1297.8,267.9c-23.3,0-45.9,4.6-67.2,13.6c-20.6,8.7-39,21.2-54.9,37s-28.3,34.3-37,54.9
					c-9,21.3-13.6,43.9-13.6,67.2s4.6,45.9,13.6,67.2c8.7,20.6,21.2,39,37,54.9c15.9,15.9,34.3,28.3,54.9,37
					c21.3,9,43.9,13.6,67.2,13.6s45.9-4.6,67.2-13.6c20.6-8.7,39-21.2,54.9-37c15.9-15.9,28.3-34.3,37-54.9
					c9-21.3,13.6-43.9,13.6-67.2s-4.6-45.9-13.6-67.2c-8.7-20.6-21.2-39-37-54.9s-34.3-28.3-54.9-37
					C1343.7,272.5,1321.1,267.9,1297.8,267.9L1297.8,267.9z"/>
			</g>
			<g>
				<defs>
					<circle id="SVGID_16_" cx="1297.8" cy="440.7" r="154.6"/>
				</defs>
				<clipPath id="SVGID_2_">
					<use xlink:href="#SVGID_16_"  overflow="visible"/>
				</clipPath>
				<g clip-path="url(#SVGID_2_)">
					<rect x="1040.5" y="323.5" fill="#9AC402" width="256.4" height="137.1"/>
					<rect x="1056.9" y="342.8" fill="#8DAF00" width="223.5" height="98.5"/>
					<circle fill="#9AC402" cx="1168.7" cy="392" r="38.7"/>
					<g>
						<circle fill="#AEEA00" cx="1092" cy="393.6" r="14"/>
						<circle fill="#AEEA00" cx="1245.4" cy="393.6" r="14"/>
					</g>
				</g>
				<g clip-path="url(#SVGID_2_)">
					<rect x="999.8" y="417.8" fill="#9AC402" width="256.4" height="137.1"/>
					<rect x="1016.3" y="437.1" fill="#8DAF00" width="223.5" height="98.5"/>
					<circle fill="#9AC402" cx="1128" cy="486.4" r="38.7"/>
					<g>
						<circle fill="#AEEA00" cx="1051.3" cy="487.9" r="14"/>
						<circle fill="#AEEA00" cx="1204.7" cy="487.9" r="14"/>
					</g>
				</g>
				<g clip-path="url(#SVGID_2_)">
					<rect x="1126.8" y="370.6" fill="#AEEA00" width="256.4" height="137.1"/>
					<rect x="1143.3" y="390" fill="#9AC402" width="223.5" height="98.5"/>
					<circle fill="#AEEA00" cx="1255" cy="439.2" r="38.7"/>
					<g>
						<circle fill="#AEEA00" cx="1178.3" cy="440.8" r="14"/>
						<circle fill="#AEEA00" cx="1331.7" cy="440.8" r="14"/>
					</g>
				</g>
			</g>
		</g>
		<g>
			<g>
				<g>
					<path fill="#BDBDBD" d="M298.8,286.7c85,0,153.9,68.9,153.9,153.9s-68.9,153.9-153.9,153.9s-153.9-68.9-153.9-153.9
						S213.8,286.7,298.8,286.7 M298.8,268.2c-23.3,0-45.9,4.6-67.1,13.6c-20.5,8.7-39,21.1-54.8,36.9
						c-15.8,15.8-28.3,34.3-36.9,54.8c-9,21.3-13.6,43.9-13.6,67.1s4.6,45.9,13.6,67.1c8.7,20.5,21.1,39,36.9,54.8
						c15.8,15.8,34.3,28.3,54.8,36.9c21.3,9,43.9,13.6,67.1,13.6s45.9-4.6,67.1-13.6c20.5-8.7,39-21.1,54.8-36.9
						c15.8-15.8,28.3-34.3,36.9-54.8c9-21.3,13.6-43.9,13.6-67.1s-4.6-45.9-13.6-67.1c-8.7-20.5-21.1-39-36.9-54.8
						c-15.8-15.8-34.3-28.3-54.8-36.9C344.7,272.8,322.1,268.2,298.8,268.2L298.8,268.2z"/>
				</g>
				<path fill="#00BCD4" d="M453.4,440.7c0,48-21.9,90.9-56.2,119.3c-26.7,22-171.1,21.6-198-1.2c-33.5-28.4-54.8-70.7-54.8-118.1
					c0-85.4,69.2-154.6,154.6-154.6S453.4,355.3,453.4,440.7z"/>
				<circle fill="none" cx="298.8" cy="440.7" r="154.6"/>
				<g>
					<defs>
						<circle id="SVGID_18_" cx="298.8" cy="440.7" r="154.6"/>
					</defs>
					<clipPath id="SVGID_4_">
						<use xlink:href="#SVGID_18_"  overflow="visible"/>
					</clipPath>
					<g clip-path="url(#SVGID_4_)">
						<g>
							<path fill="#404041" d="M387.6,353.4h-87.5H210c-9.3,0-16.9,7.6-16.9,16.9v333.1c0,9.3,7.6,16.9,16.9,16.9h90.1h87.5
								c9.3,0,16.9-7.6,16.9-16.9V370.3C404.5,361,397,353.4,387.6,353.4z"/>
						</g>
						<g>
							<rect x="212.1" y="399.2" fill-rule="evenodd" clip-rule="evenodd" fill="#FFFFFF" width="173.4" height="250.5"/>
						</g>
						<g>
							<circle fill="#212121" cx="298.8" cy="685.6" r="15.3"/>
						</g>
						<g>
							<circle fill-rule="evenodd" clip-rule="evenodd" fill="#212121" cx="266.3" cy="376.5" r="5.1"/>
						</g>
						<g>
							<path fill="#212121" d="M310.1,373.4H299h-11.4c-1.7,0-3.1,1.4-3.1,3.1c0,1.7,1.4,3.1,3.1,3.1H299h11.1
								c1.7,0,3.1-1.4,3.1-3.1C313.2,374.8,311.8,373.4,310.1,373.4z"/>
						</g>
					</g>
				</g>
				<g>
					<path fill="#212121" d="M193.1,528.5v24.9c5.9,5.6,12.3,10.7,19,15.2v-21.3C205.2,541.7,198.8,535.4,193.1,528.5z"/>
				</g>
				<g>
					<path fill="#212121" d="M385.5,547.4v21.3c6.7-4.6,13.1-9.7,19-15.2v-24.9C398.8,535.4,392.4,541.7,385.5,547.4z"/>
				</g>
				<g>
					<path fill-rule="evenodd" clip-rule="evenodd" fill="#EAEBEC" d="M298.8,578.1c-32.9,0-63-11.5-86.7-30.8v21.3
						c24.7,16.8,54.6,26.6,86.7,26.6c32.1,0,62-9.8,86.7-26.6v-21.3C361.9,566.6,331.7,578.1,298.8,578.1z"/>
				</g>
			</g>
			<g>
				<circle fill="#F05721" cx="299.2" cy="482.1" r="55.1"/>
				<g>
					<path fill="#FFFFFF" d="M288.7,486.6v-32.9c0-0.9,0.7-1.6,1.6-1.6H308c0.9,0,1.6,0.7,1.6,1.6v32.9c0,0.9-0.7,1.6-1.6,1.6h-17.7
						C289.4,488.2,288.7,487.5,288.7,486.6z"/>
					<path fill="#FFFFFF" d="M318.1,485.7h-37.9c-1.4,0-2.1,1.6-1.2,2.6l18.9,22.3c0.6,0.8,1.8,0.8,2.4,0l18.9-22.3
						C320.2,487.3,319.5,485.7,318.1,485.7z"/>
				</g>
			</g>
		</g>
		<g>
			<defs>
				<path id="SVGID_20_" d="M971.3,651.7H626c-16.4,0-29.8-13.3-29.8-29.8V278.1c0-16.4,13.3-29.8,29.8-29.8h345.2
					c16.4,0,29.8,13.3,29.8,29.8v343.8C1001,638.3,987.7,651.7,971.3,651.7z"/>
			</defs>
			<clipPath id="SVGID_6_">
				<use xlink:href="#SVGID_20_"  overflow="visible"/>
			</clipPath>
			<g clip-path="url(#SVGID_6_)">
				<g>
					<polygon fill="#F05721" points="799.8,595.3 751.2,546.6 704,499.4 703.7,499.7 596.2,607.2 596.2,651.7 1001,651.7 
						1001,394.1 999.7,395.4 					"/>
					<polygon fill="#F7991C" points="596.2,248.3 596.2,511.9 703.6,404.6 751.2,452.2 799.1,500.2 1001,298.2 1001,248.3 					"/>
					<polygon fill="#FFFFFF" points="751.2,452.2 751.2,546.6 751.2,546.6 799.8,595.3 999.7,395.4 1001,394.1 1001,298.2 
						799.1,500.2 					"/>
					<polygon fill="#FFFFFF" points="704,499.4 751.2,452.2 703.6,404.6 596.2,511.9 596.2,607.2 703.7,499.7 					"/>
					<polygon fill="#F7991C" points="751.2,546.6 751.2,546.6 751.2,452.2 704,499.4 					"/>
					
						<line fill="none" stroke="#3D82C4" stroke-width="0" stroke-linecap="round" stroke-linejoin="round" x1="704" y1="499.4" x2="703.7" y2="499.7"/>
				</g>
			</g>
		</g>
	</g>
</g>
</svg>
